<svg width="70" height="70" viewBox="0 0 70 70" fill="none" xmlns="http://www.w3.org/2000/svg">
<path fill-rule="evenodd" clip-rule="evenodd" d="M50.957 11.0545C49.0958 11.0749 47.3501 11.4377 46.0515 12.4144L17.0371 34.5888C16.7466 34.8073 16.6013 35.0722 16.5972 35.353L16.5971 43.6285C16.5938 43.9961 16.8314 44.3907 17.3017 44.7445L28.2776 52.9995C29.1091 53.6248 30.1113 53.7046 30.7796 53.202L59.7997 31.0275C61.1276 30.0288 61.7734 28.6849 61.7727 27.2497L61.7729 18.9222C61.7505 17.0458 60.6278 15.0194 58.4836 13.4067C56.2819 11.7508 53.5081 11.0267 50.9576 11.0546L50.957 11.0545Z" fill="black"/>
<path opacity="0.3" fill-rule="evenodd" clip-rule="evenodd" d="M26.8558 43.6613V51.9327L28.277 53.0015C29.1085 53.6269 30.1107 53.7066 30.779 53.2039L32.3542 52.0202V43.7487L30.779 44.9325C30.1107 45.4351 29.1085 45.3554 28.277 44.7301L26.8558 43.6613V43.6613Z" fill="url(#paint0_linear_141_22)"/>
<path fill-rule="evenodd" clip-rule="evenodd" d="M17.3009 36.4736L28.2759 44.728C29.1074 45.3534 30.1114 45.4371 30.778 44.9307L59.8063 22.8783C62.8768 20.5457 62.2985 16.3935 58.4902 13.5293C54.6819 10.6651 49.1359 10.2229 46.058 12.5381L17.0355 34.5883C16.3634 35.0938 16.4697 35.8477 17.3011 36.4729" fill="black"/>
<g filter="url(#filter0_f_141_22)">
<path d="M61.7794 19.1039C61.7171 20.5404 61.1378 21.6114 60.3795 22.4003L31.0238 44.7595C29.7383 45.7195 29.0324 45.166 28.1575 44.6414L17.7131 36.7418C16.2766 35.8192 16.4642 35.1739 17.0437 34.5957" stroke="white" stroke-width="0.21796"/>
</g>
<path d="M50.8501 10.3368C48.7394 10.3465 46.6211 11.1097 44.8745 12.6701C40.9259 15.6622 20.4575 31.2765 16.5328 34.3197C15.983 34.9503 16.1801 35.9936 16.1556 36.8299V38.6967C13.4385 40.7552 10.7012 42.7525 8.00557 44.8616C7.68515 45.5209 7.93262 46.3437 7.8584 47.0719C7.88726 48.6448 7.76972 50.2386 7.92731 51.7983C8.3825 52.4444 9.067 52.6807 9.60658 53.1852C12.3488 55.2292 15.0684 57.3315 17.8234 59.3386C18.4193 59.3896 18.8217 58.7045 19.338 58.4347L26.955 52.704C27.9334 53.4736 29.0215 54.4106 30.2226 54.1268C31.2863 53.8438 32.1126 52.847 33.0692 52.2416C36.8029 49.4052 57.0684 33.9716 60.7679 31.0622C61.8076 30.0742 62.3457 28.4165 62.3411 26.6913C62.3084 23.8518 62.314 21.0592 62.2786 18.1702C61.9063 15.8507 60.4499 14.1675 58.9474 13.0077C56.5201 11.1203 53.6624 10.3012 50.8504 10.3377L50.8501 10.3368Z" stroke="black" stroke-width="1.4" stroke-linecap="round" stroke-linejoin="round"/>
<path fill-rule="evenodd" clip-rule="evenodd" d="M8.29975 51.509L17.9241 58.7479L27.5485 51.509L17.9241 44.2701L8.29975 51.509V51.509Z" fill="#808080"/>
<path fill-rule="evenodd" clip-rule="evenodd" d="M8.43744 51.4051L18.1994 44.0629V38.272L8.43744 45.6141V51.4051Z" fill="#4D4D4D"/>
<path fill-rule="evenodd" clip-rule="evenodd" d="M17.2368 57.1964L27.4589 49.441V48.4069L17.2368 56.1623V57.1964V57.1964Z" fill="#B3B3B3"/>
<path fill-rule="evenodd" clip-rule="evenodd" d="M8.98722 50.9919V49.9578L17.237 56.1623V57.1965L8.98722 50.9919Z" fill="#ECECEC"/>
<path fill-rule="evenodd" clip-rule="evenodd" d="M17.2368 56.1621L8.98705 49.9576L19.2988 42.2021L27.5485 48.4067L17.2368 56.1621V56.1621Z" fill="#CCCCCC"/>
<path fill-rule="evenodd" clip-rule="evenodd" d="M11.2083 49.8384L12.2395 50.614L21.3616 43.7533L20.3304 42.9778L11.2083 49.8384ZM12.9269 51.131L13.9581 51.9066L23.0802 45.046L22.049 44.2704L12.9269 51.131V51.131ZM14.6456 52.4237L15.6767 53.1992L24.7989 46.3386L23.7677 45.563L14.6456 52.4237ZM16.3642 53.7163L17.3954 54.4918L26.5175 47.6312L25.4863 46.8557L16.3642 53.7163Z" fill="#808080"/>
<path fill-rule="evenodd" clip-rule="evenodd" d="M17.9243 38.0656L8.2995 45.3032L17.9243 52.5427L27.5492 45.3032L17.9243 38.0656V38.0656ZM17.2368 42.7186L18.6119 43.7529L15.8619 45.8213L14.4869 44.7871L17.2368 42.7186V42.7186ZM19.9868 44.7871L21.3618 45.8213L18.6119 47.8898L17.2368 46.8556L19.9868 44.7871Z" fill="#808080"/>
<path fill-rule="evenodd" clip-rule="evenodd" d="M17.9242 58.7473V52.5427L27.5486 45.3038V51.5084L17.9242 58.7473V58.7473Z" fill="#4D4D4D"/>
<path fill-rule="evenodd" clip-rule="evenodd" d="M14.6244 44.8906L14.4869 44.7872L17.2368 42.719V42.9258L14.6244 44.8906L14.6244 44.8906Z" fill="#333333"/>
<path fill-rule="evenodd" clip-rule="evenodd" d="M17.2368 42.7187V42.9255L18.4742 43.8561L18.6117 43.7527L17.2368 42.7186L17.2368 42.7187Z" fill="#E6E6E6"/>
<path fill-rule="evenodd" clip-rule="evenodd" d="M8.29945 45.3032V51.5084L17.9243 58.7461V52.5427L8.29945 45.3032V45.3032ZM8.43667 45.6133L17.7873 52.6467V58.4362L8.43667 51.4045V45.6132V45.6133Z" fill="#E6E6E6"/>
<path fill-rule="evenodd" clip-rule="evenodd" d="M17.3743 46.9586L17.2368 46.8552L19.9867 44.787V44.9938L17.3743 46.9586L17.3743 46.9586Z" fill="#333333"/>
<path fill-rule="evenodd" clip-rule="evenodd" d="M19.9867 44.7873V44.9941L21.2241 45.9248L21.3616 45.8213L19.9866 44.7872L19.9867 44.7873Z" fill="#E6E6E6"/>
<path opacity="0.6" fill-rule="evenodd" clip-rule="evenodd" d="M17.3743 46.9585L19.9866 44.9938L21.2241 45.9245L18.6117 47.8892L17.3743 46.9585V46.9585Z" fill="black"/>
<path opacity="0.6" fill-rule="evenodd" clip-rule="evenodd" d="M14.6245 44.8905L17.2368 42.9258L18.4742 43.8565L15.8619 45.8212L14.6245 44.8905V44.8905Z" fill="black"/>
<g opacity="0.24" filter="url(#filter1_f_141_22)">
<path d="M17.9724 52.5071L27.4396 45.3861" stroke="white" stroke-width="0.21796"/>
</g>
<path opacity="0.76549" d="M30.1881 29.9376C29.7947 30.2335 29.7856 30.7307 30.1182 31.1635L28.2347 32.5802C28.1862 32.6165 28.1551 32.6646 28.1442 32.7195L27.3931 36.5686L26.7878 37.0238C26.1993 36.7474 25.5071 36.7447 25.1004 37.0505C24.6047 37.4234 24.7209 38.116 25.3599 38.5966C25.9988 39.0772 26.9198 39.1646 27.4156 38.7917C27.808 38.4965 27.816 37.9999 27.4857 37.5678L28.2472 36.995L28.2513 36.9961L28.2517 36.9908L29.9424 35.7193L29.944 35.7225L34.5118 35.2172C34.5852 35.2097 34.6496 35.1865 34.6985 35.1503L36.4201 33.8554L36.8938 34.2117L37.1306 34.3898L37.3144 34.2516L38.7615 33.1632L38.9453 33.025L38.7084 32.8468L36.9647 31.5354L36.7279 31.3573L36.5441 31.4955L35.097 32.5839L34.9132 32.7221L35.1501 32.9002L35.7096 33.321L34.0626 34.5597L31.0402 34.8935L37.527 30.0147L38.4389 30.7005L38.766 30.9466L38.8237 30.6583L39.254 28.4509L39.3129 28.1617L38.9281 28.2041L35.9906 28.5274L35.6072 28.5708L35.9344 28.8169L36.8166 29.4804L28.4967 35.7378L29.0197 33.0578L30.8183 31.705C31.406 31.9796 32.0958 31.9822 32.5016 31.6771C32.9973 31.3042 32.8826 30.6127 32.2436 30.1321C31.6047 29.6515 30.6837 29.5641 30.188 29.937" fill="white"/>
<defs>
<filter id="filter0_f_141_22" x="16.2626" y="18.8595" width="45.8653" height="26.7729" filterUnits="userSpaceOnUse" color-interpolation-filters="sRGB">
<feFlood flood-opacity="0" result="BackgroundImageFix"/>
<feBlend mode="normal" in="SourceGraphic" in2="BackgroundImageFix" result="shape"/>
<feGaussianBlur stdDeviation="0.119829" result="effect1_foregroundBlur_141_22"/>
</filter>
<filter id="filter1_f_141_22" x="17.814" y="45.2061" width="9.78411" height="7.48101" filterUnits="userSpaceOnUse" color-interpolation-filters="sRGB">
<feFlood flood-opacity="0" result="BackgroundImageFix"/>
<feBlend mode="normal" in="SourceGraphic" in2="BackgroundImageFix" result="shape"/>
<feGaussianBlur stdDeviation="0.0464909" result="effect1_foregroundBlur_141_22"/>
</filter>
<linearGradient id="paint0_linear_141_22" x1="26.8558" y1="-508.67" x2="32.3569" y2="-508.67" gradientUnits="userSpaceOnUse">
<stop stop-color="white" stop-opacity="0"/>
<stop offset="0.5" stop-color="white"/>
<stop offset="1" stop-color="#999999"/>
</linearGradient>
</defs>
</svg>
